<svg width="21" height="26" viewBox="0 0 21 26" fill="none" xmlns="http://www.w3.org/2000/svg">
<g id="Frame 35271">
<path id="Vector" d="M2.93408 2.88517C2.93408 2.20038 3.1777 1.61436 3.66494 1.12712C4.15301 0.639054 4.73944 0.395019 5.42423 0.395019L15.3848 0.395019C16.0696 0.395019 16.6557 0.639055 17.1429 1.12712C17.631 1.61436 17.875 2.20038 17.875 2.88517L17.875 22.8064C17.875 23.4912 17.631 24.0776 17.1429 24.5657C16.6557 25.0529 16.0696 25.2966 15.3848 25.2966L5.42423 25.2966C4.73944 25.2966 4.15301 25.0529 3.66494 24.5657C3.1777 24.0776 2.93408 23.4912 2.93408 22.8064L2.93408 2.88517ZM6.66931 7.86548C6.66931 8.21825 6.78884 8.51416 7.02789 8.75322C7.26612 8.99144 7.56162 9.11056 7.91439 9.11056L9.15946 9.11056L9.15946 10.3556C9.15946 10.7084 9.27899 11.0043 9.51805 11.2434C9.75627 11.4816 10.0518 11.6007 10.4045 11.6007C10.7573 11.6007 11.0532 11.4816 11.2923 11.2434C11.5305 11.0043 11.6496 10.7084 11.6496 10.3556L11.6496 9.11056L12.8947 9.11056C13.2475 9.11056 13.5434 8.99144 13.7824 8.75322C14.0207 8.51416 14.1398 8.21825 14.1398 7.86548C14.1398 7.51271 14.0207 7.21679 13.7824 6.97774C13.5434 6.73952 13.2475 6.6204 12.8947 6.6204L11.6496 6.6204L11.6496 5.37533C11.6496 5.02255 11.5305 4.72664 11.2923 4.48759C11.0532 4.24936 10.7573 4.13025 10.4045 4.13025C10.0518 4.13025 9.75627 4.24936 9.51805 4.48759C9.27899 4.72664 9.15946 5.02255 9.15946 5.37533L9.15946 6.6204L7.91439 6.6204C7.56162 6.6204 7.26612 6.73951 7.02789 6.97774C6.78884 7.21679 6.66931 7.51271 6.66931 7.86548ZM6.66931 15.9585C6.66931 16.4773 6.85109 16.918 7.21465 17.2807C7.57739 17.6443 8.01814 17.8261 8.53693 17.8261C9.05571 17.8261 9.49646 17.6443 9.8592 17.2807C10.2228 16.918 10.4045 16.4773 10.4045 15.9585C10.4045 15.4397 10.2228 14.9989 9.8592 14.6362C9.49647 14.2726 9.05571 14.0909 8.53693 14.0909C8.01814 14.0909 7.57739 14.2726 7.21465 14.6362C6.85109 14.9989 6.66931 15.4397 6.66931 15.9585ZM10.4045 19.6937C10.4045 20.2125 10.5863 20.6532 10.9499 21.016C11.3126 21.3795 11.7534 21.5613 12.2722 21.5613C12.7909 21.5613 13.2317 21.3795 13.5944 21.016C13.958 20.6532 14.1398 20.2125 14.1398 19.6937C14.1398 19.1749 13.958 18.7342 13.5944 18.3714C13.2317 18.0079 12.7909 17.8261 12.2722 17.8261C11.7534 17.8261 11.3126 18.0079 10.9499 18.3714C10.5863 18.7342 10.4045 19.1749 10.4045 19.6937Z" fill="#2B788B"/>
</g>
</svg>
